<?xml version="1.0" encoding="UTF-8"?>
<!-- Generated by jsxcad -->
<!DOCTYPE svg PUBLIC "-//W3C//DTD SVG 1.1 Tiny//EN" "http://www.w3.org/Graphics/SVG/1.1/DTD/svg11-tiny.dtd">
<svg baseProfile="tiny" height="67.57715736040612mm" width="56.58525403784441mm" viewBox="-4.330127018922199 -3.5380710659898496 56.58525403784441 67.57715736040612" version="1.1" stroke="black" stroke-width=".1" fill="none" xmlns="http://www.w3.org/2000/svg">
<path fill="#000000" stroke="#000000" d="M4.330127018922193 1.7690355329949237 L3.061616997868383e-16 3.5380710659898473 L-4.330127018922195 1.7690355329949214 L-4.330127018922193 -1.769035532994925 L1.4163847244119948e-15 -3.5380710659898473 L4.330127018922194 -1.769035532994923 z"/>
<path fill="#000000" stroke="#000000" d="M14.980127018922193 1.7690355329949237 L10.65 3.5380710659898473 L6.319872981077805 1.7690355329949214 L6.319872981077808 -1.769035532994925 L10.65 -3.5380710659898473 L14.980127018922193 -1.769035532994923 z"/>
<path fill="#000000" stroke="#000000" d="M25.63012701892219 1.7690355329949237 L21.3 3.5380710659898473 L16.969872981077803 1.7690355329949214 L16.969872981077806 -1.769035532994925 L21.3 -3.5380710659898473 L25.63012701892219 -1.769035532994923 z"/>
<path fill="#000000" stroke="#000000" d="M36.280127018922194 1.7690355329949237 L31.950000000000003 3.5380710659898473 L27.619872981077805 1.7690355329949214 L27.61987298107781 -1.769035532994925 L31.950000000000003 -3.5380710659898473 L36.280127018922194 -1.769035532994923 z"/>
<path fill="#000000" stroke="#000000" d="M46.93012701892219 1.7690355329949237 L42.6 3.5380710659898473 L38.2698729810778 1.7690355329949214 L38.2698729810778 -1.769035532994925 L42.6 -3.5380710659898473 L46.93012701892219 -1.769035532994923 z"/>
<path fill="#000000" stroke="#000000" d="M9.655127018922192 -4.953299492385786 L5.325 -3.1842639593908624 L0.9948729810778048 -4.953299492385788 L0.9948729810778074 -8.491370558375634 L5.325000000000001 -10.260406091370557 L9.655127018922194 -8.491370558375632 z"/>
<path fill="#000000" stroke="#000000" d="M20.305127018922192 -4.953299492385786 L15.975 -3.1842639593908624 L11.644872981077805 -4.953299492385788 L11.644872981077807 -8.491370558375634 L15.975000000000001 -10.260406091370557 L20.305127018922192 -8.491370558375632 z"/>
<path fill="#000000" stroke="#000000" d="M30.95512701892219 -4.953299492385786 L26.625 -3.1842639593908624 L22.294872981077805 -4.953299492385788 L22.294872981077805 -8.491370558375634 L26.625 -10.260406091370557 L30.955127018922195 -8.491370558375632 z"/>
<path fill="#000000" stroke="#000000" d="M41.60512701892219 -4.953299492385786 L37.275 -3.1842639593908624 L32.94487298107781 -4.953299492385788 L32.94487298107781 -8.491370558375634 L37.275 -10.260406091370557 L41.6051270189222 -8.491370558375632 z"/>
<path fill="#000000" stroke="#000000" d="M52.25512701892219 -4.953299492385786 L47.925 -3.1842639593908624 L43.594872981077806 -4.953299492385788 L43.594872981077806 -8.491370558375634 L47.925 -10.260406091370557 L52.255127018922195 -8.491370558375632 z"/>
<path fill="#000000" stroke="#000000" d="M4.330127018922193 -11.675634517766495 L3.061616997868383e-16 -9.906598984771572 L-4.330127018922195 -11.675634517766497 L-4.330127018922193 -15.213705583756346 L1.4163847244119948e-15 -16.982741116751264 L4.330127018922194 -15.213705583756344 z"/>
<path fill="#000000" stroke="#000000" d="M14.980127018922193 -11.675634517766495 L10.65 -9.906598984771572 L6.319872981077805 -11.675634517766497 L6.319872981077808 -15.213705583756346 L10.65 -16.982741116751264 L14.980127018922193 -15.213705583756344 z"/>
<path fill="#000000" stroke="#000000" d="M25.63012701892219 -11.675634517766495 L21.3 -9.906598984771572 L16.969872981077803 -11.675634517766497 L16.969872981077806 -15.213705583756346 L21.3 -16.982741116751264 L25.63012701892219 -15.213705583756344 z"/>
<path fill="#000000" stroke="#000000" d="M36.280127018922194 -11.675634517766495 L31.950000000000003 -9.906598984771572 L27.619872981077805 -11.675634517766497 L27.61987298107781 -15.213705583756346 L31.950000000000003 -16.982741116751264 L36.280127018922194 -15.213705583756344 z"/>
<path fill="#000000" stroke="#000000" d="M46.93012701892219 -11.675634517766495 L42.6 -9.906598984771572 L38.2698729810778 -11.675634517766497 L38.2698729810778 -15.213705583756346 L42.6 -16.982741116751264 L46.93012701892219 -15.213705583756344 z"/>
<path fill="#000000" stroke="#000000" d="M9.655127018922192 -18.397969543147205 L5.325 -16.628934010152282 L0.9948729810778048 -18.39796954314721 L0.9948729810778074 -21.936040609137052 L5.325000000000001 -23.705076142131976 L9.655127018922194 -21.936040609137052 z"/>
<path fill="#000000" stroke="#000000" d="M20.305127018922192 -18.397969543147205 L15.975 -16.628934010152282 L11.644872981077805 -18.39796954314721 L11.644872981077807 -21.936040609137052 L15.975000000000001 -23.705076142131976 L20.305127018922192 -21.936040609137052 z"/>
<path fill="#000000" stroke="#000000" d="M30.95512701892219 -18.397969543147205 L26.625 -16.628934010152282 L22.294872981077805 -18.39796954314721 L22.294872981077805 -21.936040609137052 L26.625 -23.705076142131976 L30.955127018922195 -21.936040609137052 z"/>
<path fill="#000000" stroke="#000000" d="M41.60512701892219 -18.397969543147205 L37.275 -16.628934010152282 L32.94487298107781 -18.39796954314721 L32.94487298107781 -21.936040609137052 L37.275 -23.705076142131976 L41.6051270189222 -21.936040609137052 z"/>
<path fill="#000000" stroke="#000000" d="M52.25512701892219 -18.397969543147205 L47.925 -16.628934010152282 L43.594872981077806 -18.39796954314721 L43.594872981077806 -21.936040609137052 L47.925 -23.705076142131976 L52.255127018922195 -21.936040609137052 z"/>
<path fill="#000000" stroke="#000000" d="M4.330127018922193 -25.120304568527917 L3.061616997868383e-16 -23.35126903553299 L-4.330127018922195 -25.12030456852792 L-4.330127018922193 -28.658375634517764 L1.4163847244119948e-15 -30.427411167512687 L4.330127018922194 -28.658375634517764 z"/>
<path fill="#000000" stroke="#000000" d="M14.980127018922193 -25.120304568527917 L10.65 -23.35126903553299 L6.319872981077805 -25.12030456852792 L6.319872981077808 -28.658375634517764 L10.65 -30.427411167512687 L14.980127018922193 -28.658375634517764 z"/>
<path fill="#000000" stroke="#000000" d="M25.63012701892219 -25.120304568527917 L21.3 -23.35126903553299 L16.969872981077803 -25.12030456852792 L16.969872981077806 -28.658375634517764 L21.3 -30.427411167512687 L25.63012701892219 -28.658375634517764 z"/>
<path fill="#000000" stroke="#000000" d="M36.280127018922194 -25.120304568527917 L31.950000000000003 -23.35126903553299 L27.619872981077805 -25.12030456852792 L27.61987298107781 -28.658375634517764 L31.950000000000003 -30.427411167512687 L36.280127018922194 -28.658375634517764 z"/>
<path fill="#000000" stroke="#000000" d="M46.93012701892219 -25.120304568527917 L42.6 -23.35126903553299 L38.2698729810778 -25.12030456852792 L38.2698729810778 -28.658375634517764 L42.6 -30.427411167512687 L46.93012701892219 -28.658375634517764 z"/>
<path fill="#000000" stroke="#000000" d="M9.655127018922192 -31.842639593908626 L5.325 -30.073604060913702 L0.9948729810778048 -31.842639593908626 L0.9948729810778074 -35.380710659898476 L5.325000000000001 -37.149746192893396 L9.655127018922194 -35.380710659898476 z"/>
<path fill="#000000" stroke="#000000" d="M20.305127018922192 -31.842639593908626 L15.975 -30.073604060913702 L11.644872981077805 -31.842639593908626 L11.644872981077807 -35.380710659898476 L15.975000000000001 -37.149746192893396 L20.305127018922192 -35.380710659898476 z"/>
<path fill="#000000" stroke="#000000" d="M30.95512701892219 -31.842639593908626 L26.625 -30.073604060913702 L22.294872981077805 -31.842639593908626 L22.294872981077805 -35.380710659898476 L26.625 -37.149746192893396 L30.955127018922195 -35.380710659898476 z"/>
<path fill="#000000" stroke="#000000" d="M41.60512701892219 -31.842639593908626 L37.275 -30.073604060913702 L32.94487298107781 -31.842639593908626 L32.94487298107781 -35.380710659898476 L37.275 -37.149746192893396 L41.6051270189222 -35.380710659898476 z"/>
<path fill="#000000" stroke="#000000" d="M52.25512701892219 -31.842639593908626 L47.925 -30.073604060913702 L43.594872981077806 -31.842639593908626 L43.594872981077806 -35.380710659898476 L47.925 -37.149746192893396 L52.255127018922195 -35.380710659898476 z"/>
<path fill="#000000" stroke="#000000" d="M4.330127018922193 -38.56497461928934 L3.061616997868383e-16 -36.79593908629441 L-4.330127018922195 -38.56497461928934 L-4.330127018922193 -42.103045685279184 L1.4163847244119948e-15 -43.872081218274104 L4.330127018922194 -42.10304568527918 z"/>
<path fill="#000000" stroke="#000000" d="M14.980127018922193 -38.56497461928934 L10.65 -36.79593908629441 L6.319872981077805 -38.56497461928934 L6.319872981077808 -42.103045685279184 L10.65 -43.872081218274104 L14.980127018922193 -42.10304568527918 z"/>
<path fill="#000000" stroke="#000000" d="M25.63012701892219 -38.56497461928934 L21.3 -36.79593908629441 L16.969872981077803 -38.56497461928934 L16.969872981077806 -42.103045685279184 L21.3 -43.872081218274104 L25.63012701892219 -42.10304568527918 z"/>
<path fill="#000000" stroke="#000000" d="M36.280127018922194 -38.56497461928934 L31.950000000000003 -36.79593908629441 L27.619872981077805 -38.56497461928934 L27.61987298107781 -42.103045685279184 L31.950000000000003 -43.872081218274104 L36.280127018922194 -42.10304568527918 z"/>
<path fill="#000000" stroke="#000000" d="M46.93012701892219 -38.56497461928934 L42.6 -36.79593908629441 L38.2698729810778 -38.56497461928934 L38.2698729810778 -42.103045685279184 L42.6 -43.872081218274104 L46.93012701892219 -42.10304568527918 z"/>
<path fill="#000000" stroke="#000000" d="M9.655127018922192 -45.28730964467004 L5.325 -43.51827411167512 L0.9948729810778048 -45.287309644670046 L0.9948729810778074 -48.82538071065989 L5.325000000000001 -50.59441624365481 L9.655127018922194 -48.825380710659886 z"/>
<path fill="#000000" stroke="#000000" d="M20.305127018922192 -45.28730964467004 L15.975 -43.51827411167512 L11.644872981077805 -45.287309644670046 L11.644872981077807 -48.82538071065989 L15.975000000000001 -50.59441624365481 L20.305127018922192 -48.825380710659886 z"/>
<path fill="#000000" stroke="#000000" d="M30.95512701892219 -45.28730964467004 L26.625 -43.51827411167512 L22.294872981077805 -45.287309644670046 L22.294872981077805 -48.82538071065989 L26.625 -50.59441624365481 L30.955127018922195 -48.825380710659886 z"/>
<path fill="#000000" stroke="#000000" d="M41.60512701892219 -45.28730964467004 L37.275 -43.51827411167512 L32.94487298107781 -45.287309644670046 L32.94487298107781 -48.82538071065989 L37.275 -50.59441624365481 L41.6051270189222 -48.825380710659886 z"/>
<path fill="#000000" stroke="#000000" d="M52.25512701892219 -45.28730964467004 L47.925 -43.51827411167512 L43.594872981077806 -45.287309644670046 L43.594872981077806 -48.82538071065989 L47.925 -50.59441624365481 L52.255127018922195 -48.825380710659886 z"/>
<path fill="#000000" stroke="#000000" d="M4.330127018922193 -52.009644670050754 L3.061616997868383e-16 -50.240609137055834 L-4.330127018922195 -52.00964467005076 L-4.330127018922193 -55.54771573604061 L1.4163847244119948e-15 -57.31675126903553 L4.330127018922194 -55.5477157360406 z"/>
<path fill="#000000" stroke="#000000" d="M14.980127018922193 -52.009644670050754 L10.65 -50.240609137055834 L6.319872981077805 -52.00964467005076 L6.319872981077808 -55.54771573604061 L10.65 -57.31675126903553 L14.980127018922193 -55.5477157360406 z"/>
<path fill="#000000" stroke="#000000" d="M25.63012701892219 -52.009644670050754 L21.3 -50.240609137055834 L16.969872981077803 -52.00964467005076 L16.969872981077806 -55.54771573604061 L21.3 -57.31675126903553 L25.63012701892219 -55.5477157360406 z"/>
<path fill="#000000" stroke="#000000" d="M36.280127018922194 -52.009644670050754 L31.950000000000003 -50.240609137055834 L27.619872981077805 -52.00964467005076 L27.61987298107781 -55.54771573604061 L31.950000000000003 -57.31675126903553 L36.280127018922194 -55.5477157360406 z"/>
<path fill="#000000" stroke="#000000" d="M46.93012701892219 -52.009644670050754 L42.6 -50.240609137055834 L38.2698729810778 -52.00964467005076 L38.2698729810778 -55.54771573604061 L42.6 -57.31675126903553 L46.93012701892219 -55.5477157360406 z"/>
<path fill="#000000" stroke="#000000" d="M9.655127018922192 -58.73197969543146 L5.325 -56.96294416243654 L0.9948729810778048 -58.73197969543147 L0.9948729810778074 -62.27005076142132 L5.325000000000001 -64.03908629441622 L9.655127018922194 -62.2700507614213 z"/>
<path fill="#000000" stroke="#000000" d="M20.305127018922192 -58.73197969543146 L15.975 -56.96294416243654 L11.644872981077805 -58.73197969543147 L11.644872981077807 -62.27005076142132 L15.975000000000001 -64.03908629441622 L20.305127018922192 -62.2700507614213 z"/>
<path fill="#000000" stroke="#000000" d="M30.95512701892219 -58.73197969543146 L26.625 -56.96294416243654 L22.294872981077805 -58.73197969543147 L22.294872981077805 -62.27005076142132 L26.625 -64.03908629441622 L30.955127018922195 -62.2700507614213 z"/>
<path fill="#000000" stroke="#000000" d="M41.60512701892219 -58.73197969543146 L37.275 -56.96294416243654 L32.94487298107781 -58.73197969543147 L32.94487298107781 -62.27005076142132 L37.275 -64.03908629441622 L41.6051270189222 -62.2700507614213 z"/>
<path fill="#000000" stroke="#000000" d="M52.25512701892219 -58.73197969543146 L47.925 -56.96294416243654 L43.594872981077806 -58.73197969543147 L43.594872981077806 -62.27005076142132 L47.925 -64.03908629441622 L52.255127018922195 -62.2700507614213 z"/>
</svg>